<svg xmlns="http://www.w3.org/2000/svg" xmlns:xlink="http://www.w3.org/1999/xlink" fill="none" version="1.1" width="8.04671573638916" height="9.038411140441895" viewBox="0 0 8.04671573638916 9.038411140441895"><path d="M3.16369,9.03841L2.11237,7.9685L5.83308,4.31243L2.14834,1.13615L3.12771,0L8.04672,4.24023L3.16369,9.03841ZM1.03536,5.31168Q1.08622,5.31168,1.13684,5.3067Q1.18746,5.30171,1.23735,5.29179Q1.28723,5.28187,1.33591,5.2671Q1.38458,5.25234,1.43157,5.23287Q1.47856,5.21341,1.52342,5.18943Q1.56828,5.16545,1.61057,5.13719Q1.65286,5.10893,1.69218,5.07667Q1.7315,5.0444,1.76747,5.00843Q1.80343,4.97247,1.8357,4.93315Q1.86797,4.89383,1.89623,4.85154Q1.92448,4.80925,1.94846,4.76439Q1.97244,4.71953,1.9919,4.67254Q2.01137,4.62555,2.02613,4.57687Q2.0409,4.5282,2.05082,4.47831Q2.06075,4.42843,2.06573,4.37781Q2.07072,4.32719,2.07072,4.27632Q2.07072,4.22546,2.06573,4.17484Q2.06075,4.12422,2.05082,4.07434Q2.0409,4.02445,2.02613,3.97578Q2.01137,3.9271,1.9919,3.88011Q1.97244,3.83312,1.94846,3.78826Q1.92448,3.7434,1.89623,3.70111Q1.86797,3.65882,1.8357,3.6195Q1.80343,3.58018,1.76747,3.54422Q1.7315,3.50825,1.69218,3.47598Q1.65286,3.44371,1.61057,3.41546Q1.56828,3.3872,1.52342,3.36322Q1.47856,3.33924,1.43157,3.31978Q1.38458,3.30031,1.33591,3.28555Q1.28723,3.27078,1.23735,3.26086Q1.18746,3.25094,1.13684,3.24595Q1.08622,3.24097,1.03536,3.24097Q0.984494,3.24097,0.933875,3.24595Q0.883256,3.25094,0.83337,3.26086Q0.783483,3.27078,0.734809,3.28555Q0.686136,3.30031,0.639144,3.31978Q0.592152,3.33924,0.547294,3.36322Q0.502436,3.3872,0.460144,3.41546Q0.417852,3.44371,0.378534,3.47598Q0.339216,3.50825,0.303249,3.54422Q0.267283,3.58018,0.235015,3.6195Q0.202748,3.65882,0.174489,3.70111Q0.146231,3.7434,0.122254,3.78826Q0.0982767,3.83312,0.0788119,3.88011Q0.0593472,3.9271,0.0445822,3.97578Q0.0298172,4.02445,0.0198941,4.07434Q0.00997106,4.12422,0.00498553,4.17484Q0,4.22546,0,4.27632Q0,4.32719,0.00498553,4.37781Q0.00997106,4.42843,0.0198941,4.47831Q0.0298172,4.5282,0.0445822,4.57687Q0.0593472,4.62555,0.0788119,4.67254Q0.0982767,4.71953,0.122254,4.76439Q0.146231,4.80925,0.174489,4.85154Q0.202748,4.89383,0.235015,4.93315Q0.267283,4.97247,0.303249,5.00843Q0.339216,5.0444,0.378534,5.07667Q0.417852,5.10893,0.460144,5.13719Q0.502436,5.16545,0.547294,5.18943Q0.592152,5.21341,0.639144,5.23287Q0.686136,5.25234,0.734809,5.2671Q0.783483,5.28187,0.83337,5.29179Q0.883256,5.30171,0.933875,5.3067Q0.984494,5.31168,1.03536,5.31168Z" fill-rule="evenodd" fill="#F3C569" fill-opacity="1"/></svg>