<svg xmlns="http://www.w3.org/2000/svg" xmlns:xlink="http://www.w3.org/1999/xlink" fill="none" version="1.1" width="22.954681396484375" height="24.00002670288086" viewBox="0 0 22.954681396484375 24.00002670288086"><path d="M13.0455,0.5L10.9546,0.5L10.9546,23.5L13.0455,23.5L13.0455,0.5ZM8.86365,19.3182L2.59091,19.3182L2.59091,4.68182L8.86365,4.68182L8.86365,2.59091L0.5,2.59091L0.5,21.4091L8.86365,21.4091L8.86365,19.3182ZM14.0908,4.68182L16.1817,4.68182L16.1817,2.59091L14.0908,2.59091L14.0908,4.68182ZM19.318,4.68182L17.2271,4.68182L17.2271,2.59091L19.318,2.59091L19.318,4.68182ZM20.3638,4.68182L20.3638,2.59091L22.4547,2.59091L22.4547,4.68182L20.3638,4.68182ZM20.3638,7.81818L20.3638,5.72726L22.4547,5.72726L22.4547,7.81818L20.3638,7.81818ZM20.3638,8.86365L20.3638,10.9546L22.4547,10.9546L22.4547,8.86365L20.3638,8.86365ZM20.3638,14.0909L20.3638,12L22.4547,12L22.4547,14.0909L20.3638,14.0909ZM20.3638,17.2273L20.3638,15.1364L22.4547,15.1364L22.4547,17.2273L20.3638,17.2273ZM14.0908,19.3182L16.1817,19.3182L16.1817,21.4091L14.0908,21.4091L14.0908,19.3182ZM17.2271,19.3182L19.318,19.3182L19.318,21.4091L17.2271,21.4091L17.2271,19.3182ZM20.3638,21.4091L20.3638,19.3182L22.4547,19.3182L22.4547,21.4091L20.3638,21.4091Z" fill-rule="evenodd" fill="#F3C569" fill-opacity="1"/></svg>