<svg xmlns="http://www.w3.org/2000/svg" xmlns:xlink="http://www.w3.org/1999/xlink" fill="none" version="1.1" width="21.954681396484375" height="23.00002670288086" viewBox="0 0 21.954681396484375 23.00002670288086"><path d="M12.5455,0L10.4546,0L10.4546,23L12.5455,23L12.5455,0ZM8.36365,18.8182L2.09091,18.8182L2.09091,4.18182L8.36365,4.18182L8.36365,2.09091L0,2.09091L0,20.9091L8.36365,20.9091L8.36365,18.8182ZM13.5908,4.18182L15.6817,4.18182L15.6817,2.09091L13.5908,2.09091L13.5908,4.18182ZM18.818,4.18182L16.7271,4.18182L16.7271,2.09091L18.818,2.09091L18.818,4.18182ZM19.8638,4.18182L19.8638,2.09091L21.9547,2.09091L21.9547,4.18182L19.8638,4.18182ZM19.8638,7.31818L19.8638,5.22726L21.9547,5.22726L21.9547,7.31818L19.8638,7.31818ZM19.8638,8.36365L19.8638,10.4546L21.9547,10.4546L21.9547,8.36365L19.8638,8.36365ZM19.8638,13.5909L19.8638,11.5L21.9547,11.5L21.9547,13.5909L19.8638,13.5909ZM19.8638,16.7273L19.8638,14.6364L21.9547,14.6364L21.9547,16.7273L19.8638,16.7273ZM13.5908,18.8182L15.6817,18.8182L15.6817,20.9091L13.5908,20.9091L13.5908,18.8182ZM16.7271,18.8182L18.818,18.8182L18.818,20.9091L16.7271,20.9091L16.7271,18.8182ZM19.8638,20.9091L19.8638,18.8182L21.9547,18.8182L21.9547,20.9091L19.8638,20.9091Z" fill-rule="evenodd" fill="#3BB8FF" fill-opacity="1"/></svg>