<svg xmlns="http://www.w3.org/2000/svg" xmlns:xlink="http://www.w3.org/1999/xlink" fill="none" version="1.1" width="22.399999618530273" height="22.399999618530273" viewBox="0 0 22.399999618530273 22.399999618530273"><path d="M18.06,4.34L22.4,4.34L22.4,22.4L4.34,22.4L4.34,18.06L0,18.06L0,0L18.06,0L18.06,4.34ZM4.34023,4.33999L4.34023,16.03L2.24023,16.03L2.24023,2.23999L16.0302,2.23999L16.0302,4.33999L4.34023,4.33999ZM18.0601,18.06L18.0601,6.37L20.1601,6.37L20.1601,20.16L6.37012,20.16L6.37012,18.06L18.0601,18.06ZM9.9744,12.3333L8.84799,13.8539C8.73535,14.2482,8.17214,14.2482,7.60894,14.1355C7.2147,13.8539,7.04573,13.2907,7.32734,12.8965L9.12959,10.2494C9.29855,10.0804,9.29855,9.9678,9.41119,9.9678C9.80544,9.6862,10.3686,9.85516,10.6502,10.2494L11.6077,11.7701L13.6915,8.61611C13.9732,8.22187,14.5364,8.05291,14.9306,8.33451C15.3248,8.61611,15.4938,9.17932,15.2122,9.57356L12.4525,13.8539C12.2835,14.0229,12.2835,14.1355,12.1709,14.1355C11.7767,14.4171,11.2134,14.2482,10.9318,13.8539L9.9744,12.3333Z" fill-rule="evenodd" fill="#3BB8FF" fill-opacity="1"/></svg>