<svg xmlns="http://www.w3.org/2000/svg" xmlns:xlink="http://www.w3.org/1999/xlink" fill="none" version="1.1" width="23.399999618530273" height="23.399999618530273" viewBox="0 0 23.399999618530273 23.399999618530273"><path d="M18.56,4.84L22.9,4.84L22.9,22.9L4.84,22.9L4.84,18.56L0.5,18.56L0.5,0.5L18.56,0.5L18.56,4.84ZM4.84023,4.83999L4.84023,16.53L2.74023,16.53L2.74023,2.73999L16.5302,2.73999L16.5302,4.83999L4.84023,4.83999ZM18.5601,18.56L18.5601,6.87L20.6601,6.87L20.6601,20.66L6.87012,20.66L6.87012,18.56L18.5601,18.56ZM10.4744,12.8333L9.34799,14.3539C9.23535,14.7482,8.67214,14.7482,8.10894,14.6355C7.7147,14.3539,7.54573,13.7907,7.82734,13.3965L9.62959,10.7494C9.79855,10.5804,9.79855,10.4678,9.91119,10.4678C10.30544,10.1862,10.8686,10.35516,11.1502,10.7494L12.1077,12.2701L14.1915,9.11611C14.4732,8.72187,15.0364,8.55291,15.4306,8.83451C15.8248,9.11611,15.9938,9.67932,15.7122,10.07356L12.9525,14.3539C12.7835,14.5229,12.7835,14.6355,12.6709,14.6355C12.2767,14.9171,11.7134,14.7482,11.4318,14.3539L10.4744,12.8333Z" fill-rule="evenodd" fill="#F3C569" fill-opacity="1"/></svg>